{
	"asset":{
		"generator":"Khronos glTF Blender I/O v4.5.49",
		"version":"2.0"
	},
	"scene":0,
	"scenes":[
		{
			"name":"Scene",
			"nodes":[
				22
			]
		}
	],
	"nodes":[
		{
			"mesh":0,
			"name":"Antenna_Low.001"
		},
		{
			"children":[
				0
			],
			"name":"Antenna_Low"
		},
		{
			"mesh":1,
			"name":"Arms_Low.001"
		},
		{
			"children":[
				2
			],
			"name":"Arms_Low"
		},
		{
			"mesh":2,
			"name":"Body_Low.001"
		},
		{
			"children":[
				4
			],
			"name":"Body_Low"
		},
		{
			"mesh":3,
			"name":"Claws_Low.001"
		},
		{
			"children":[
				6
			],
			"name":"Claws_Low"
		},
		{
			"mesh":4,
			"name":"Eyes_Low.001"
		},
		{
			"children":[
				8
			],
			"name":"Eyes_Low"
		},
		{
			"mesh":5,
			"name":"Fins_Low.001"
		},
		{
			"children":[
				10
			],
			"name":"Fins_Low"
		},
		{
			"mesh":6,
			"name":"Legs_Low.001"
		},
		{
			"children":[
				12
			],
			"name":"Legs_Low"
		},
		{
			"mesh":7,
			"name":"Patagia_Low.001"
		},
		{
			"children":[
				14
			],
			"name":"Patagia_Low"
		},
		{
			"mesh":8,
			"name":"Spikes_Low.001"
		},
		{
			"children":[
				16
			],
			"name":"Spikes_Low"
		},
		{
			"mesh":9,
			"name":"Tail_Low.001"
		},
		{
			"children":[
				18
			],
			"name":"Tail_Low"
		},
		{
			"mesh":10,
			"name":"Teeth_Low.001"
		},
		{
			"children":[
				20
			],
			"name":"Teeth_Low"
		},
		{
			"children":[
				1,
				3,
				5,
				7,
				9,
				11,
				13,
				15,
				17,
				19,
				21
			],
			"name":"RootNode",
			"scale":[
				10,
				10,
				10
			],
			"translation":[
				0,
				16,
				13
			]
		}
	],
	"materials":[
		{
			"name":"Antenna_Low",
			"normalTexture":{
				"index":0
			},
			"occlusionTexture":{
				"index":1
			},
			"pbrMetallicRoughness":{
				"baseColorTexture":{
					"index":2
				},
				"metallicRoughnessTexture":{
					"index":1
				}
			}
		},
		{
			"name":"Arms_Low",
			"normalTexture":{
				"index":3
			},
			"occlusionTexture":{
				"index":4
			},
			"pbrMetallicRoughness":{
				"baseColorTexture":{
					"index":5
				},
				"metallicRoughnessTexture":{
					"index":4
				}
			}
		},
		{
			"name":"Body_Low",
			"normalTexture":{
				"index":6
			},
			"occlusionTexture":{
				"index":7
			},
			"pbrMetallicRoughness":{
				"baseColorTexture":{
					"index":8
				},
				"metallicRoughnessTexture":{
					"index":7
				}
			}
		},
		{
			"name":"Claws_Low",
			"normalTexture":{
				"index":9
			},
			"occlusionTexture":{
				"index":10
			},
			"pbrMetallicRoughness":{
				"baseColorTexture":{
					"index":11
				},
				"metallicRoughnessTexture":{
					"index":10
				}
			}
		},
		{
			"name":"Eyes_Low",
			"normalTexture":{
				"index":12
			},
			"occlusionTexture":{
				"index":13
			},
			"pbrMetallicRoughness":{
				"baseColorTexture":{
					"index":14
				},
				"metallicRoughnessTexture":{
					"index":13
				}
			}
		},
		{
			"name":"Fins_Low",
			"normalTexture":{
				"index":15
			},
			"occlusionTexture":{
				"index":16
			},
			"pbrMetallicRoughness":{
				"baseColorTexture":{
					"index":17
				},
				"metallicRoughnessTexture":{
					"index":16
				}
			}
		},
		{
			"name":"Legs_Low",
			"normalTexture":{
				"index":18
			},
			"occlusionTexture":{
				"index":19
			},
			"pbrMetallicRoughness":{
				"baseColorTexture":{
					"index":20
				},
				"metallicRoughnessTexture":{
					"index":19
				}
			}
		},
		{
			"name":"Patagia_Low",
			"normalTexture":{
				"index":21
			},
			"occlusionTexture":{
				"index":22
			},
			"pbrMetallicRoughness":{
				"baseColorTexture":{
					"index":23
				},
				"metallicRoughnessTexture":{
					"index":22
				}
			}
		},
		{
			"name":"Spikes_Low",
			"normalTexture":{
				"index":24
			},
			"occlusionTexture":{
				"index":25
			},
			"pbrMetallicRoughness":{
				"baseColorTexture":{
					"index":26
				},
				"metallicRoughnessTexture":{
					"index":25
				}
			}
		},
		{
			"name":"Tail_Low",
			"normalTexture":{
				"index":27
			},
			"occlusionTexture":{
				"index":28
			},
			"pbrMetallicRoughness":{
				"baseColorTexture":{
					"index":29
				},
				"metallicRoughnessTexture":{
					"index":28
				}
			}
		},
		{
			"name":"Teeth_Low",
			"normalTexture":{
				"index":30
			},
			"occlusionTexture":{
				"index":31
			},
			"pbrMetallicRoughness":{
				"baseColorTexture":{
					"index":32
				},
				"metallicRoughnessTexture":{
					"index":31
				}
			}
		}
	],
	"meshes":[
		{
			"name":"Antenna_Low",
			"primitives":[
				{
					"attributes":{
						"POSITION":0,
						"NORMAL":1,
						"TEXCOORD_0":2
					},
					"indices":3,
					"material":0
				}
			]
		},
		{
			"name":"Arms_Low",
			"primitives":[
				{
					"attributes":{
						"POSITION":4,
						"NORMAL":5,
						"TEXCOORD_0":6
					},
					"indices":7,
					"material":1
				}
			]
		},
		{
			"name":"Body_Low",
			"primitives":[
				{
					"attributes":{
						"POSITION":8,
						"NORMAL":9,
						"TEXCOORD_0":10
					},
					"indices":11,
					"material":2
				}
			]
		},
		{
			"name":"Claws_Low",
			"primitives":[
				{
					"attributes":{
						"POSITION":12,
						"NORMAL":13,
						"TEXCOORD_0":14
					},
					"indices":15,
					"material":3
				}
			]
		},
		{
			"name":"Eyes_Low",
			"primitives":[
				{
					"attributes":{
						"POSITION":16,
						"NORMAL":17,
						"TEXCOORD_0":18
					},
					"indices":19,
					"material":4
				}
			]
		},
		{
			"name":"Fins_Low",
			"primitives":[
				{
					"attributes":{
						"POSITION":20,
						"NORMAL":21,
						"TEXCOORD_0":22
					},
					"indices":23,
					"material":5
				}
			]
		},
		{
			"name":"Legs_Low",
			"primitives":[
				{
					"attributes":{
						"POSITION":24,
						"NORMAL":25,
						"TEXCOORD_0":26
					},
					"indices":27,
					"material":6
				}
			]
		},
		{
			"name":"Patagia_Low",
			"primitives":[
				{
					"attributes":{
						"POSITION":28,
						"NORMAL":29,
						"TEXCOORD_0":30
					},
					"indices":31,
					"material":7
				}
			]
		},
		{
			"name":"Spikes_Low",
			"primitives":[
				{
					"attributes":{
						"POSITION":32,
						"NORMAL":33,
						"TEXCOORD_0":34
					},
					"indices":35,
					"material":8
				}
			]
		},
		{
			"name":"Tail_Low",
			"primitives":[
				{
					"attributes":{
						"POSITION":36,
						"NORMAL":37,
						"TEXCOORD_0":38
					},
					"indices":39,
					"material":9
				}
			]
		},
		{
			"name":"Teeth_Low",
			"primitives":[
				{
					"attributes":{
						"POSITION":40,
						"NORMAL":41,
						"TEXCOORD_0":42
					},
					"indices":43,
					"material":10
				}
			]
		}
	],
	"textures":[
		{
			"sampler":0,
			"source":0
		},
		{
			"sampler":0,
			"source":1
		},
		{
			"sampler":0,
			"source":2
		},
		{
			"sampler":0,
			"source":3
		},
		{
			"sampler":0,
			"source":4
		},
		{
			"sampler":0,
			"source":5
		},
		{
			"sampler":0,
			"source":6
		},
		{
			"sampler":0,
			"source":7
		},
		{
			"sampler":0,
			"source":8
		},
		{
			"sampler":0,
			"source":9
		},
		{
			"sampler":0,
			"source":10
		},
		{
			"sampler":0,
			"source":11
		},
		{
			"sampler":0,
			"source":12
		},
		{
			"sampler":0,
			"source":13
		},
		{
			"sampler":0,
			"source":14
		},
		{
			"sampler":0,
			"source":15
		},
		{
			"sampler":0,
			"source":16
		},
		{
			"sampler":0,
			"source":17
		},
		{
			"sampler":0,
			"source":18
		},
		{
			"sampler":0,
			"source":19
		},
		{
			"sampler":0,
			"source":20
		},
		{
			"sampler":0,
			"source":21
		},
		{
			"sampler":0,
			"source":22
		},
		{
			"sampler":0,
			"source":23
		},
		{
			"sampler":0,
			"source":24
		},
		{
			"sampler":0,
			"source":25
		},
		{
			"sampler":0,
			"source":26
		},
		{
			"sampler":0,
			"source":27
		},
		{
			"sampler":0,
			"source":28
		},
		{
			"sampler":0,
			"source":29
		},
		{
			"sampler":0,
			"source":30
		},
		{
			"sampler":0,
			"source":31
		},
		{
			"sampler":0,
			"source":32
		}
	],
	"images":[
		{
			"mimeType":"image/png",
			"name":"Antenna_Low_normal",
			"uri":"Antenna_Low_normal.png"
		},
		{
			"mimeType":"image/png",
			"name":"Antenna_Low_occlusionRoughnessMetallic",
			"uri":"Antenna_Low_occlusionRoughnessMetallic.png"
		},
		{
			"mimeType":"image/png",
			"name":"Antenna_Low_baseColor",
			"uri":"Antenna_Low_baseColor.png"
		},
		{
			"mimeType":"image/png",
			"name":"Arms_Low_normal",
			"uri":"Arms_Low_normal.png"
		},
		{
			"mimeType":"image/png",
			"name":"Arms_Low_occlusionRoughnessMetallic",
			"uri":"Arms_Low_occlusionRoughnessMetallic.png"
		},
		{
			"mimeType":"image/png",
			"name":"Arms_Low_baseColor",
			"uri":"Arms_Low_baseColor.png"
		},
		{
			"mimeType":"image/png",
			"name":"Body_Low_normal",
			"uri":"Body_Low_normal.png"
		},
		{
			"mimeType":"image/png",
			"name":"Body_Low_occlusionRoughnessMetallic",
			"uri":"Body_Low_occlusionRoughnessMetallic.png"
		},
		{
			"mimeType":"image/png",
			"name":"Body_Low_baseColor",
			"uri":"Body_Low_baseColor.png"
		},
		{
			"mimeType":"image/png",
			"name":"Claws_Low_normal",
			"uri":"Claws_Low_normal.png"
		},
		{
			"mimeType":"image/png",
			"name":"Claws_Low_occlusionRoughnessMetallic",
			"uri":"Claws_Low_occlusionRoughnessMetallic.png"
		},
		{
			"mimeType":"image/png",
			"name":"Claws_Low_baseColor",
			"uri":"Claws_Low_baseColor.png"
		},
		{
			"mimeType":"image/png",
			"name":"Eyes_Low_normal",
			"uri":"Eyes_Low_normal.png"
		},
		{
			"mimeType":"image/png",
			"name":"Eyes_Low_occlusionRoughnessMetallic",
			"uri":"Eyes_Low_occlusionRoughnessMetallic.png"
		},
		{
			"mimeType":"image/png",
			"name":"Eyes_Low_baseColor",
			"uri":"Eyes_Low_baseColor.png"
		},
		{
			"mimeType":"image/png",
			"name":"Fins_Low_normal",
			"uri":"Fins_Low_normal.png"
		},
		{
			"mimeType":"image/png",
			"name":"Fins_Low_occlusionRoughnessMetallic",
			"uri":"Fins_Low_occlusionRoughnessMetallic.png"
		},
		{
			"mimeType":"image/png",
			"name":"Fins_Low_baseColor",
			"uri":"Fins_Low_baseColor.png"
		},
		{
			"mimeType":"image/png",
			"name":"Legs_Low_normal",
			"uri":"Legs_Low_normal.png"
		},
		{
			"mimeType":"image/png",
			"name":"Legs_Low_occlusionRoughnessMetallic",
			"uri":"Legs_Low_occlusionRoughnessMetallic.png"
		},
		{
			"mimeType":"image/png",
			"name":"Legs_Low_baseColor",
			"uri":"Legs_Low_baseColor.png"
		},
		{
			"mimeType":"image/png",
			"name":"Patagia_Low_normal",
			"uri":"Patagia_Low_normal.png"
		},
		{
			"mimeType":"image/png",
			"name":"Patagia_Low_occlusionRoughnessMetallic",
			"uri":"Patagia_Low_occlusionRoughnessMetallic.png"
		},
		{
			"mimeType":"image/png",
			"name":"Patagia_Low_baseColor",
			"uri":"Patagia_Low_baseColor.png"
		},
		{
			"mimeType":"image/png",
			"name":"Spikes_Low_normal",
			"uri":"Spikes_Low_normal.png"
		},
		{
			"mimeType":"image/png",
			"name":"Spikes_Low_occlusionRoughnessMetallic",
			"uri":"Spikes_Low_occlusionRoughnessMetallic.png"
		},
		{
			"mimeType":"image/png",
			"name":"Spikes_Low_baseColor",
			"uri":"Spikes_Low_baseColor.png"
		},
		{
			"mimeType":"image/png",
			"name":"Tail_Low_normal",
			"uri":"Tail_Low_normal.png"
		},
		{
			"mimeType":"image/png",
			"name":"Tail_Low_occlusionRoughnessMetallic",
			"uri":"Tail_Low_occlusionRoughnessMetallic.png"
		},
		{
			"mimeType":"image/png",
			"name":"Tail_Low_baseColor",
			"uri":"Tail_Low_baseColor.png"
		},
		{
			"mimeType":"image/png",
			"name":"Teeth_Low_normal",
			"uri":"Teeth_Low_normal.png"
		},
		{
			"mimeType":"image/png",
			"name":"Teeth_Low_occlusionRoughnessMetallic",
			"uri":"Teeth_Low_occlusionRoughnessMetallic.png"
		},
		{
			"mimeType":"image/png",
			"name":"Teeth_Low_baseColor",
			"uri":"Teeth_Low_baseColor.png"
		}
	],
	"accessors":[
		{
			"bufferView":0,
			"componentType":5126,
			"count":10648,
			"max":[
				0.5969167947769165,
				0.2976393699645996,
				-0.02498936653137207
			],
			"min":[
				-0.5969167351722717,
				-0.30280327796936035,
				-2.042912483215332
			],
			"type":"VEC3"
		},
		{
			"bufferView":1,
			"componentType":5126,
			"count":10648,
			"type":"VEC3"
		},
		{
			"bufferView":2,
			"componentType":5126,
			"count":10648,
			"type":"VEC2"
		},
		{
			"bufferView":3,
			"componentType":5123,
			"count":60156,
			"type":"SCALAR"
		},
		{
			"bufferView":4,
			"componentType":5126,
			"count":15011,
			"max":[
				1.2098636627197266,
				-1.066562294960022,
				0.22076821327209473
			],
			"min":[
				-1.2098453044891357,
				-3.0457839965820312,
				-1.0069650411605835
			],
			"type":"VEC3"
		},
		{
			"bufferView":5,
			"componentType":5126,
			"count":15011,
			"type":"VEC3"
		},
		{
			"bufferView":6,
			"componentType":5126,
			"count":15011,
			"type":"VEC2"
		},
		{
			"bufferView":7,
			"componentType":5123,
			"count":85344,
			"type":"SCALAR"
		},
		{
			"bufferView":8,
			"componentType":5126,
			"count":54345,
			"max":[
				0.5061373710632324,
				0.3180946111679077,
				0.555232048034668
			],
			"min":[
				-0.5061379671096802,
				-2.363959789276123,
				-5.252413749694824
			],
			"type":"VEC3"
		},
		{
			"bufferView":9,
			"componentType":5126,
			"count":54345,
			"type":"VEC3"
		},
		{
			"bufferView":10,
			"componentType":5126,
			"count":54345,
			"type":"VEC2"
		},
		{
			"bufferView":11,
			"componentType":5123,
			"count":313176,
			"type":"SCALAR"
		},
		{
			"bufferView":12,
			"componentType":5126,
			"count":6944,
			"max":[
				1.216951847076416,
				-1.9238790273666382,
				0.05509352684020996
			],
			"min":[
				-1.216951847076416,
				-3.3250513076782227,
				-1.388354778289795
			],
			"type":"VEC3"
		},
		{
			"bufferView":13,
			"componentType":5126,
			"count":6944,
			"type":"VEC3"
		},
		{
			"bufferView":14,
			"componentType":5126,
			"count":6944,
			"type":"VEC2"
		},
		{
			"bufferView":15,
			"componentType":5123,
			"count":38124,
			"type":"SCALAR"
		},
		{
			"bufferView":16,
			"componentType":5126,
			"count":1441,
			"max":[
				0.25967472791671753,
				0.24220526218414307,
				0.2835958003997803
			],
			"min":[
				-0.2595129609107971,
				0.09978747367858887,
				0.054668426513671875
			],
			"type":"VEC3"
		},
		{
			"bufferView":17,
			"componentType":5126,
			"count":1441,
			"type":"VEC3"
		},
		{
			"bufferView":18,
			"componentType":5126,
			"count":1441,
			"type":"VEC2"
		},
		{
			"bufferView":19,
			"componentType":5123,
			"count":8142,
			"type":"SCALAR"
		},
		{
			"bufferView":20,
			"componentType":5126,
			"count":9265,
			"max":[
				0.372856467962265,
				-0.6674118638038635,
				-0.4398726224899292
			],
			"min":[
				-0.3728371560573578,
				-1.2395859956741333,
				-1.7602587938308716
			],
			"type":"VEC3"
		},
		{
			"bufferView":21,
			"componentType":5126,
			"count":9265,
			"type":"VEC3"
		},
		{
			"bufferView":22,
			"componentType":5126,
			"count":9265,
			"type":"VEC2"
		},
		{
			"bufferView":23,
			"componentType":5123,
			"count":53340,
			"type":"SCALAR"
		},
		{
			"bufferView":24,
			"componentType":5126,
			"count":21829,
			"max":[
				1.0351506471633911,
				-1.3972172737121582,
				-0.2655148506164551
			],
			"min":[
				-1.0351296663284302,
				-3.341670036315918,
				-1.5620813369750977
			],
			"type":"VEC3"
		},
		{
			"bufferView":25,
			"componentType":5126,
			"count":21829,
			"type":"VEC3"
		},
		{
			"bufferView":26,
			"componentType":5126,
			"count":21829,
			"type":"VEC2"
		},
		{
			"bufferView":27,
			"componentType":5123,
			"count":124212,
			"type":"SCALAR"
		},
		{
			"bufferView":28,
			"componentType":5126,
			"count":23027,
			"max":[
				1.1612244844436646,
				-1.0982030630111694,
				0.13336491584777832
			],
			"min":[
				-1.1612244844436646,
				-3.0069665908813477,
				-1.808459997177124
			],
			"type":"VEC3"
		},
		{
			"bufferView":29,
			"componentType":5126,
			"count":23027,
			"type":"VEC3"
		},
		{
			"bufferView":30,
			"componentType":5126,
			"count":23027,
			"type":"VEC2"
		},
		{
			"bufferView":31,
			"componentType":5123,
			"count":131976,
			"type":"SCALAR"
		},
		{
			"bufferView":32,
			"componentType":5126,
			"count":9541,
			"max":[
				0.2953838109970093,
				-0.9266188144683838,
				-0.7324113845825195
			],
			"min":[
				-0.29538384079933167,
				-1.1518917083740234,
				-1.5676732063293457
			],
			"type":"VEC3"
		},
		{
			"bufferView":33,
			"componentType":5126,
			"count":9541,
			"type":"VEC3"
		},
		{
			"bufferView":34,
			"componentType":5126,
			"count":9541,
			"type":"VEC2"
		},
		{
			"bufferView":35,
			"componentType":5123,
			"count":52440,
			"type":"SCALAR"
		},
		{
			"bufferView":36,
			"componentType":5126,
			"count":24618,
			"max":[
				0.5819126963615417,
				-1.3994061946868896,
				-0.9396270513534546
			],
			"min":[
				-0.5819126963615417,
				-2.3774142265319824,
				-5.173734664916992
			],
			"type":"VEC3"
		},
		{
			"bufferView":37,
			"componentType":5126,
			"count":24618,
			"type":"VEC3"
		},
		{
			"bufferView":38,
			"componentType":5126,
			"count":24618,
			"type":"VEC2"
		},
		{
			"bufferView":39,
			"componentType":5123,
			"count":142140,
			"type":"SCALAR"
		},
		{
			"bufferView":40,
			"componentType":5126,
			"count":2763,
			"max":[
				0.23404139280319214,
				0.08435964584350586,
				0.3745157718658447
			],
			"min":[
				-0.2340434342622757,
				-0.010909080505371094,
				0.17064738273620605
			],
			"type":"VEC3"
		},
		{
			"bufferView":41,
			"componentType":5126,
			"count":2763,
			"type":"VEC3"
		},
		{
			"bufferView":42,
			"componentType":5126,
			"count":2763,
			"type":"VEC2"
		},
		{
			"bufferView":43,
			"componentType":5123,
			"count":15072,
			"type":"SCALAR"
		}
	],
	"bufferViews":[
		{
			"buffer":0,
			"byteLength":127776,
			"byteOffset":0,
			"target":34962
		},
		{
			"buffer":0,
			"byteLength":127776,
			"byteOffset":127776,
			"target":34962
		},
		{
			"buffer":0,
			"byteLength":85184,
			"byteOffset":255552,
			"target":34962
		},
		{
			"buffer":0,
			"byteLength":120312,
			"byteOffset":340736,
			"target":34963
		},
		{
			"buffer":0,
			"byteLength":180132,
			"byteOffset":461048,
			"target":34962
		},
		{
			"buffer":0,
			"byteLength":180132,
			"byteOffset":641180,
			"target":34962
		},
		{
			"buffer":0,
			"byteLength":120088,
			"byteOffset":821312,
			"target":34962
		},
		{
			"buffer":0,
			"byteLength":170688,
			"byteOffset":941400,
			"target":34963
		},
		{
			"buffer":0,
			"byteLength":652140,
			"byteOffset":1112088,
			"target":34962
		},
		{
			"buffer":0,
			"byteLength":652140,
			"byteOffset":1764228,
			"target":34962
		},
		{
			"buffer":0,
			"byteLength":434760,
			"byteOffset":2416368,
			"target":34962
		},
		{
			"buffer":0,
			"byteLength":626352,
			"byteOffset":2851128,
			"target":34963
		},
		{
			"buffer":0,
			"byteLength":83328,
			"byteOffset":3477480,
			"target":34962
		},
		{
			"buffer":0,
			"byteLength":83328,
			"byteOffset":3560808,
			"target":34962
		},
		{
			"buffer":0,
			"byteLength":55552,
			"byteOffset":3644136,
			"target":34962
		},
		{
			"buffer":0,
			"byteLength":76248,
			"byteOffset":3699688,
			"target":34963
		},
		{
			"buffer":0,
			"byteLength":17292,
			"byteOffset":3775936,
			"target":34962
		},
		{
			"buffer":0,
			"byteLength":17292,
			"byteOffset":3793228,
			"target":34962
		},
		{
			"buffer":0,
			"byteLength":11528,
			"byteOffset":3810520,
			"target":34962
		},
		{
			"buffer":0,
			"byteLength":16284,
			"byteOffset":3822048,
			"target":34963
		},
		{
			"buffer":0,
			"byteLength":111180,
			"byteOffset":3838332,
			"target":34962
		},
		{
			"buffer":0,
			"byteLength":111180,
			"byteOffset":3949512,
			"target":34962
		},
		{
			"buffer":0,
			"byteLength":74120,
			"byteOffset":4060692,
			"target":34962
		},
		{
			"buffer":0,
			"byteLength":106680,
			"byteOffset":4134812,
			"target":34963
		},
		{
			"buffer":0,
			"byteLength":261948,
			"byteOffset":4241492,
			"target":34962
		},
		{
			"buffer":0,
			"byteLength":261948,
			"byteOffset":4503440,
			"target":34962
		},
		{
			"buffer":0,
			"byteLength":174632,
			"byteOffset":4765388,
			"target":34962
		},
		{
			"buffer":0,
			"byteLength":248424,
			"byteOffset":4940020,
			"target":34963
		},
		{
			"buffer":0,
			"byteLength":276324,
			"byteOffset":5188444,
			"target":34962
		},
		{
			"buffer":0,
			"byteLength":276324,
			"byteOffset":5464768,
			"target":34962
		},
		{
			"buffer":0,
			"byteLength":184216,
			"byteOffset":5741092,
			"target":34962
		},
		{
			"buffer":0,
			"byteLength":263952,
			"byteOffset":5925308,
			"target":34963
		},
		{
			"buffer":0,
			"byteLength":114492,
			"byteOffset":6189260,
			"target":34962
		},
		{
			"buffer":0,
			"byteLength":114492,
			"byteOffset":6303752,
			"target":34962
		},
		{
			"buffer":0,
			"byteLength":76328,
			"byteOffset":6418244,
			"target":34962
		},
		{
			"buffer":0,
			"byteLength":104880,
			"byteOffset":6494572,
			"target":34963
		},
		{
			"buffer":0,
			"byteLength":295416,
			"byteOffset":6599452,
			"target":34962
		},
		{
			"buffer":0,
			"byteLength":295416,
			"byteOffset":6894868,
			"target":34962
		},
		{
			"buffer":0,
			"byteLength":196944,
			"byteOffset":7190284,
			"target":34962
		},
		{
			"buffer":0,
			"byteLength":284280,
			"byteOffset":7387228,
			"target":34963
		},
		{
			"buffer":0,
			"byteLength":33156,
			"byteOffset":7671508,
			"target":34962
		},
		{
			"buffer":0,
			"byteLength":33156,
			"byteOffset":7704664,
			"target":34962
		},
		{
			"buffer":0,
			"byteLength":22104,
			"byteOffset":7737820,
			"target":34962
		},
		{
			"buffer":0,
			"byteLength":30144,
			"byteOffset":7759924,
			"target":34963
		}
	],
	"samplers":[
		{
			"magFilter":9729,
			"minFilter":9987
		}
	],
	"buffers":[
		{
			"byteLength":7790068,
			"uri":"Creature_Substance.bin"
		}
	]
}
