{
	"asset":{
		"generator":"Khronos glTF Blender I/O v4.5.49",
		"version":"2.0"
	},
	"scene":0,
	"scenes":[
		{
			"name":"Scene",
			"nodes":[
				3,
				4,
				5,
				6,
				7
			]
		}
	],
	"nodes":[
		{
			"mesh":0,
			"name":"pCylinder2",
			"translation":[
				2.86102294921875e-06,
				-8.58306884765625e-06,
				0
			]
		},
		{
			"mesh":1,
			"name":"pCylinder21",
			"translation":[
				2.86102294921875e-06,
				-8.58306884765625e-06,
				0
			]
		},
		{
			"mesh":2,
			"name":"pTorus1",
			"translation":[
				2.86102294921875e-06,
				-8.58306884765625e-06,
				0
			]
		},
		{
			"children":[
				0,
				1,
				2
			],
			"name":"manche",
			"translation":[
				2.86102294921875e-06,
				-8.58306884765625e-06,
				0
			]
		},
		{
			"mesh":3,
			"name":"pCube1",
			"translation":[
				2.86102294921875e-06,
				-8.58306884765625e-06,
				0
			]
		},
		{
			"mesh":4,
			"name":"pCube2",
			"translation":[
				2.86102294921875e-06,
				-8.58306884765625e-06,
				0
			]
		},
		{
			"mesh":5,
			"name":"pCube3",
			"translation":[
				2.86102294921875e-06,
				-8.58306884765625e-06,
				0
			]
		},
		{
			"mesh":6,
			"name":"pCylinder1",
			"translation":[
				2.86102294921875e-06,
				-8.58306884765625e-06,
				0
			]
		}
	],
	"materials":[
		{
			"doubleSided":true,
			"name":"epew",
			"normalTexture":{
				"index":0
			},
			"pbrMetallicRoughness":{
				"baseColorTexture":{
					"index":1
				},
				"metallicRoughnessTexture":{
					"index":2
				}
			}
		}
	],
	"meshes":[
		{
			"name":"Mesh.006",
			"primitives":[
				{
					"attributes":{
						"POSITION":0,
						"NORMAL":1,
						"TEXCOORD_0":2
					},
					"indices":3,
					"material":0
				}
			]
		},
		{
			"name":"Mesh.005",
			"primitives":[
				{
					"attributes":{
						"POSITION":4,
						"NORMAL":5,
						"TEXCOORD_0":6
					},
					"indices":7,
					"material":0
				}
			]
		},
		{
			"name":"Mesh.004",
			"primitives":[
				{
					"attributes":{
						"POSITION":8,
						"NORMAL":9,
						"TEXCOORD_0":10
					},
					"indices":11,
					"material":0
				}
			]
		},
		{
			"name":"Mesh.003",
			"primitives":[
				{
					"attributes":{
						"POSITION":12,
						"NORMAL":13,
						"TEXCOORD_0":14
					},
					"indices":15,
					"material":0
				}
			]
		},
		{
			"name":"Mesh.001",
			"primitives":[
				{
					"attributes":{
						"POSITION":16,
						"NORMAL":17,
						"TEXCOORD_0":18
					},
					"indices":19,
					"material":0
				}
			]
		},
		{
			"name":"Mesh.002",
			"primitives":[
				{
					"attributes":{
						"POSITION":20,
						"NORMAL":21,
						"TEXCOORD_0":22
					},
					"indices":23,
					"material":0
				}
			]
		},
		{
			"name":"Mesh",
			"primitives":[
				{
					"attributes":{
						"POSITION":24,
						"NORMAL":25,
						"TEXCOORD_0":26
					},
					"indices":27,
					"material":0
				}
			]
		}
	],
	"textures":[
		{
			"sampler":0,
			"source":0
		},
		{
			"sampler":0,
			"source":1
		},
		{
			"sampler":0,
			"source":2
		}
	],
	"images":[
		{
			"mimeType":"image/png",
			"name":"low_epee_epew_Normal",
			"uri":"low_epee_epew_Normal.png"
		},
		{
			"mimeType":"image/png",
			"name":"low_epee_epew_BaseColor",
			"uri":"low_epee_epew_BaseColor.png"
		},
		{
			"mimeType":"image/png",
			"name":"low_epee_epew_Metallic",
			"uri":"low_epee_epew_Metallic.png"
		}
	],
	"accessors":[
		{
			"bufferView":0,
			"componentType":5126,
			"count":158,
			"max":[
				1.3247454166412354,
				1.315261721611023,
				-30.915390014648438
			],
			"min":[
				-1.2992198467254639,
				-1.324756383895874,
				-31.895889282226562
			],
			"type":"VEC3"
		},
		{
			"bufferView":1,
			"componentType":5126,
			"count":158,
			"type":"VEC3"
		},
		{
			"bufferView":2,
			"componentType":5126,
			"count":158,
			"type":"VEC2"
		},
		{
			"bufferView":3,
			"componentType":5123,
			"count":600,
			"type":"SCALAR"
		},
		{
			"bufferView":4,
			"componentType":5126,
			"count":253,
			"max":[
				1.3270719051361084,
				0.4012422263622284,
				-3.699371337890625
			],
			"min":[
				-1.3270719051361084,
				-0.4012634754180908,
				-4.501861572265625
			],
			"type":"VEC3"
		},
		{
			"bufferView":5,
			"componentType":5126,
			"count":253,
			"type":"VEC3"
		},
		{
			"bufferView":6,
			"componentType":5126,
			"count":253,
			"type":"VEC2"
		},
		{
			"bufferView":7,
			"componentType":5123,
			"count":960,
			"type":"SCALAR"
		},
		{
			"bufferView":8,
			"componentType":5126,
			"count":961,
			"max":[
				2.4752795696258545,
				0.282637357711792,
				-0.37860107421875
			],
			"min":[
				-2.483811855316162,
				-0.28257834911346436,
				-4.7063140869140625
			],
			"type":"VEC3"
		},
		{
			"bufferView":9,
			"componentType":5126,
			"count":961,
			"type":"VEC3"
		},
		{
			"bufferView":10,
			"componentType":5126,
			"count":961,
			"type":"VEC2"
		},
		{
			"bufferView":11,
			"componentType":5123,
			"count":5400,
			"type":"SCALAR"
		},
		{
			"bufferView":12,
			"componentType":5126,
			"count":200,
			"max":[
				6.583574295043945,
				2.124762773513794,
				-31.563201904296875
			],
			"min":[
				-6.583574295043945,
				-2.1247310638427734,
				-34.39308166503906
			],
			"type":"VEC3"
		},
		{
			"bufferView":13,
			"componentType":5126,
			"count":200,
			"type":"VEC3"
		},
		{
			"bufferView":14,
			"componentType":5126,
			"count":200,
			"type":"VEC2"
		},
		{
			"bufferView":15,
			"componentType":5123,
			"count":948,
			"type":"SCALAR"
		},
		{
			"bufferView":16,
			"componentType":5126,
			"count":633,
			"max":[
				3.932194232940674,
				0.67838454246521,
				-33.45831298828125
			],
			"min":[
				-5.564952850341797,
				-0.6784189939498901,
				-134.9379425048828
			],
			"type":"VEC3"
		},
		{
			"bufferView":17,
			"componentType":5126,
			"count":633,
			"type":"VEC3"
		},
		{
			"bufferView":18,
			"componentType":5126,
			"count":633,
			"type":"VEC2"
		},
		{
			"bufferView":19,
			"componentType":5123,
			"count":3300,
			"type":"SCALAR"
		},
		{
			"bufferView":20,
			"componentType":5126,
			"count":248,
			"max":[
				4.568755149841309,
				0.8655781745910645,
				-32.86207580566406
			],
			"min":[
				-4.568755149841309,
				-0.8655993342399597,
				-34.91862487792969
			],
			"type":"VEC3"
		},
		{
			"bufferView":21,
			"componentType":5126,
			"count":248,
			"type":"VEC3"
		},
		{
			"bufferView":22,
			"componentType":5126,
			"count":248,
			"type":"VEC2"
		},
		{
			"bufferView":23,
			"componentType":5123,
			"count":708,
			"type":"SCALAR"
		},
		{
			"bufferView":24,
			"componentType":5126,
			"count":108,
			"max":[
				1.1078120470046997,
				1.1078016757965088,
				-3.4759674072265625
			],
			"min":[
				-1.1078124046325684,
				-1.107823133468628,
				-32.80931091308594
			],
			"type":"VEC3"
		},
		{
			"bufferView":25,
			"componentType":5126,
			"count":108,
			"type":"VEC3"
		},
		{
			"bufferView":26,
			"componentType":5126,
			"count":108,
			"type":"VEC2"
		},
		{
			"bufferView":27,
			"componentType":5123,
			"count":420,
			"type":"SCALAR"
		}
	],
	"bufferViews":[
		{
			"buffer":0,
			"byteLength":1896,
			"byteOffset":0,
			"target":34962
		},
		{
			"buffer":0,
			"byteLength":1896,
			"byteOffset":1896,
			"target":34962
		},
		{
			"buffer":0,
			"byteLength":1264,
			"byteOffset":3792,
			"target":34962
		},
		{
			"buffer":0,
			"byteLength":1200,
			"byteOffset":5056,
			"target":34963
		},
		{
			"buffer":0,
			"byteLength":3036,
			"byteOffset":6256,
			"target":34962
		},
		{
			"buffer":0,
			"byteLength":3036,
			"byteOffset":9292,
			"target":34962
		},
		{
			"buffer":0,
			"byteLength":2024,
			"byteOffset":12328,
			"target":34962
		},
		{
			"buffer":0,
			"byteLength":1920,
			"byteOffset":14352,
			"target":34963
		},
		{
			"buffer":0,
			"byteLength":11532,
			"byteOffset":16272,
			"target":34962
		},
		{
			"buffer":0,
			"byteLength":11532,
			"byteOffset":27804,
			"target":34962
		},
		{
			"buffer":0,
			"byteLength":7688,
			"byteOffset":39336,
			"target":34962
		},
		{
			"buffer":0,
			"byteLength":10800,
			"byteOffset":47024,
			"target":34963
		},
		{
			"buffer":0,
			"byteLength":2400,
			"byteOffset":57824,
			"target":34962
		},
		{
			"buffer":0,
			"byteLength":2400,
			"byteOffset":60224,
			"target":34962
		},
		{
			"buffer":0,
			"byteLength":1600,
			"byteOffset":62624,
			"target":34962
		},
		{
			"buffer":0,
			"byteLength":1896,
			"byteOffset":64224,
			"target":34963
		},
		{
			"buffer":0,
			"byteLength":7596,
			"byteOffset":66120,
			"target":34962
		},
		{
			"buffer":0,
			"byteLength":7596,
			"byteOffset":73716,
			"target":34962
		},
		{
			"buffer":0,
			"byteLength":5064,
			"byteOffset":81312,
			"target":34962
		},
		{
			"buffer":0,
			"byteLength":6600,
			"byteOffset":86376,
			"target":34963
		},
		{
			"buffer":0,
			"byteLength":2976,
			"byteOffset":92976,
			"target":34962
		},
		{
			"buffer":0,
			"byteLength":2976,
			"byteOffset":95952,
			"target":34962
		},
		{
			"buffer":0,
			"byteLength":1984,
			"byteOffset":98928,
			"target":34962
		},
		{
			"buffer":0,
			"byteLength":1416,
			"byteOffset":100912,
			"target":34963
		},
		{
			"buffer":0,
			"byteLength":1296,
			"byteOffset":102328,
			"target":34962
		},
		{
			"buffer":0,
			"byteLength":1296,
			"byteOffset":103624,
			"target":34962
		},
		{
			"buffer":0,
			"byteLength":864,
			"byteOffset":104920,
			"target":34962
		},
		{
			"buffer":0,
			"byteLength":840,
			"byteOffset":105784,
			"target":34963
		}
	],
	"samplers":[
		{
			"magFilter":9729,
			"minFilter":9987
		}
	],
	"buffers":[
		{
			"byteLength":106624,
			"uri":"Untitled.bin"
		}
	]
}
